# Blender v2.77 (sub 0) OBJ File: 'baddie.blend'
# www.blender.org
o Icosphere
v 0.000000 -0.500000 0.000000
v 0.361804 -0.223610 0.262863
v -0.138194 -0.223610 0.425325
v -0.447213 -0.223608 0.000000
v -0.138194 -0.223610 -0.425325
v 0.361804 -0.223610 -0.262863
v 0.138194 0.223610 0.425325
v -0.361804 0.223610 0.262863
v -0.021579 0.000000 0.529700
v 0.138194 0.223610 -0.425325
v 0.447213 0.223608 0.000000
v 0.000000 0.500000 0.000000
v -0.081228 -0.425327 0.249998
v 0.212661 -0.425327 0.154506
v 0.131434 -0.262869 0.404506
v 0.425324 -0.262868 0.000000
v 0.212661 -0.425327 -0.154506
v -0.262865 -0.425326 0.000000
v -0.344095 -0.262868 0.249998
v -0.081228 -0.425327 -0.249998
v -0.344095 -0.262868 -0.249998
v 0.131434 -0.262869 -0.404506
v 0.475529 0.000000 0.154506
v 0.475529 0.000000 -0.154506
v 0.000000 0.000000 0.500000
v 0.293893 0.000000 0.404508
v -0.475529 0.000000 0.154506
v -0.293893 0.000000 -0.404508
v -0.475529 0.000000 -0.154506
v 0.000000 0.000000 -0.500000
v 0.344095 0.262868 0.249998
v -0.131434 0.262869 0.404506
v -0.425324 0.262868 0.000000
v -0.131434 0.262869 -0.404506
v 0.344095 0.262868 -0.249998
v 0.081228 0.425327 0.249998
v -0.212661 0.425327 0.154506
v -0.212661 0.425327 -0.154506
v 0.081228 0.425327 -0.249998
v 0.321033 -0.577480 0.288590
v 0.470176 -0.375763 0.396947
v 0.321033 -0.577480 -0.288590
v 0.470176 -0.375763 -0.396947
v -0.438129 -0.415021 -0.394500
v -0.232228 -0.375763 -0.569826
v 0.239806 -0.415022 -0.538591
v 0.239806 -0.415022 0.538591
v -0.175262 -0.577480 -0.394499
v -0.375794 -0.608052 0.082048
v -0.457024 -0.445594 0.332047
v -0.194157 -0.608053 0.332046
v 0.435758 -0.553673 0.430536
v 0.584901 -0.351956 0.538893
v 0.435758 -0.553673 -0.430536
v 0.584901 -0.351956 -0.538893
v -0.537676 -0.391214 -0.547473
v -0.331775 -0.351956 -0.722799
v 0.354531 -0.391215 -0.680536
v 0.354531 -0.391215 0.680536
v -0.274809 -0.553673 -0.547472
v -0.495344 -0.616610 0.168907
v -0.576574 -0.454152 0.418905
v -0.313707 -0.616611 0.418904
v 0.395944 0.346762 -0.249998
v 0.499062 0.307502 -0.000000
v 0.303056 0.490357 -0.000000
v 0.051849 0.583894 -0.000000
v 0.395944 0.346762 0.249998
v 0.133077 0.509221 0.249998
v 0.133077 0.509221 -0.249998
v -0.509059 0.020723 -0.178867
v -0.430657 0.266164 -0.312887
v -0.458854 0.283591 -0.024361
v -0.246192 0.446050 -0.178867
v -0.327423 0.020723 -0.428869
v -0.164965 0.283592 -0.428867
v -0.159773 -0.223610 0.455025
v -0.339120 -0.000000 0.466758
v -0.383382 0.223610 0.292563
v -0.153013 0.262869 0.434206
v -0.365673 -0.262868 0.279699
v -0.497107 0.000000 0.184207
v 0.160113 -0.262869 -0.443978
v 0.390482 -0.223610 -0.302335
v 0.342261 0.000000 -0.471081
v 0.028678 0.000000 -0.539472
v 0.166872 0.223610 -0.464797
v 0.504207 0.000000 -0.193978
v 0.372773 0.262868 -0.289471
vn 0.1024 -0.9435 0.3151
vn 0.7002 -0.6617 0.2680
vn -0.2680 -0.9435 0.1947
vn -0.2680 -0.9435 -0.1947
vn 0.1024 -0.9435 -0.3151
vn 0.9050 -0.3304 0.2680
vn 0.0247 -0.3304 0.9435
vn -0.8897 -0.3304 0.3151
vn -0.5746 -0.3304 -0.7488
vn -0.6882 -0.5257 -0.5000
vn 0.8026 -0.1256 0.5831
vn -0.6639 0.5714 -0.4824
vn -0.9921 -0.1256 0.0000
vn -0.3066 -0.1256 -0.9435
vn 0.6639 -0.5714 0.4824
vn 0.4089 0.6617 0.6284
vn -0.4713 0.6617 0.5831
vn -0.6708 -0.2764 0.6882
vn 0.0385 0.6617 -0.7488
vn -0.7805 0.4824 0.3977
vn 0.7805 -0.4824 -0.3977
vn -0.7805 0.4824 -0.3977
vn 0.4089 0.6617 -0.6284
vn -0.1024 0.9435 -0.3151
vn -0.1876 0.7947 -0.5773
vn 0.6382 0.7236 -0.2629
vn -0.3313 0.9435 0.0000
vn -0.6071 0.7947 0.0000
vn -0.7002 0.6617 0.2680
vn -0.1024 0.9435 0.3151
vn -0.1876 0.7947 0.5773
vn 0.0385 0.6617 0.7488
vn 0.7805 -0.4824 0.3977
vn -0.0000 0.0000 -1.0000
vn -0.0000 0.0000 1.0000
vn 0.8897 0.3304 -0.3151
vn -0.1166 0.9896 -0.0847
vn -0.0247 0.3304 -0.9435
vn -0.3035 0.1876 -0.9342
vn -0.0528 0.7236 0.6882
vn 0.4472 -0.2764 -0.8507
vn -0.9822 0.1876 0.0000
vn -0.9050 0.3304 0.2680
vn -0.0247 0.3304 0.9435
vn 0.5746 0.3304 0.7488
vn 0.7947 0.1876 0.5773
vn 0.8897 0.3304 0.3151
vn 0.1166 -0.9896 0.0847
vn 0.6882 0.5257 0.5000
vn 0.0247 -0.3304 -0.9435
vn -0.3618 -0.8944 -0.2629
vn -0.7947 -0.1876 -0.5773
vn -0.8897 -0.3304 -0.3151
vn 0.3066 0.1256 0.9435
vn 0.3035 -0.1876 0.9342
vn 0.5346 -0.3304 0.7779
vn 0.9921 0.1256 0.0000
vn 0.9822 -0.1876 0.0000
vn 0.9050 -0.3304 -0.2680
vn -0.8419 -0.5346 0.0738
vn 0.1876 -0.7947 -0.5773
vn -0.0385 -0.6617 -0.7488
vn 0.6429 -0.6071 -0.4671
vn -0.4911 -0.7947 -0.3568
vn -0.7240 -0.6617 -0.1947
vn -0.7240 -0.6617 0.1947
vn -0.8419 -0.5346 -0.0738
vn -0.4089 -0.6617 0.6284
vn 0.7002 -0.6617 -0.2680
vn 0.6071 -0.7947 0.0000
vn 0.3313 -0.9435 0.0000
vn -0.0385 -0.6617 0.7488
vn 0.1876 -0.7947 0.5773
vn 0.8884 -0.1314 -0.4398
vn -0.1797 0.9835 0.0197
vn -0.3542 -0.8325 -0.4259
vn 0.0468 -0.9983 -0.0340
vn -0.0368 0.9835 0.1770
vn 0.6928 -0.1314 0.7090
vn 0.1876 0.3035 0.9342
vn 0.6928 -0.1314 -0.7090
vn -0.5148 0.7359 -0.4398
vn 0.2592 0.7359 0.6255
vn -0.8305 0.3035 -0.4671
vn 0.2592 0.7359 -0.6255
vn -0.3304 -0.5346 0.7779
vn 0.4713 -0.6617 -0.5831
vn -0.4089 -0.6617 -0.6284
vn -0.4911 -0.7947 0.3568
vn 0.4713 -0.6617 0.5831
vn 0.4090 0.6618 0.6282
vn 0.7720 -0.2589 -0.5805
vn -0.5145 -0.8325 0.2053
vn -0.1797 0.9835 -0.0197
vn -0.3542 -0.8325 0.4259
vn 0.7720 -0.2589 0.5805
vn -0.4711 0.6618 -0.5831
vn 0.7907 -0.2589 -0.5548
vn 0.6729 0.7213 -0.1643
vn 0.3442 0.9244 -0.1643
vn 0.5045 0.8163 -0.2814
vn 0.3442 0.9244 0.1643
vn 0.5045 0.8163 0.2814
vn 0.6729 0.7213 0.1643
vn -0.6523 0.7501 -0.1090
vn -0.3053 0.7501 -0.5866
vn -0.4012 0.2479 -0.8818
vn -0.9626 0.2479 -0.1090
vn -0.8074 -0.0624 -0.5866
vn -0.1904 -0.2031 0.9605
vn -0.5209 0.4580 0.7203
vn -0.1882 0.2508 0.9496
vn -0.8546 0.2031 0.4779
vn -0.8449 -0.2508 0.4724
vn -0.5241 -0.4580 0.7180
vn 0.5238 -0.4383 -0.7304
vn 0.8475 -0.1910 -0.4953
vn 0.8379 0.2411 -0.4897
vn 0.5328 0.4383 -0.7239
vn 0.2092 0.1910 -0.9590
vn 0.2068 -0.2411 -0.9482
s off
f 1//1 14//1 13//1
f 2//2 14//2 16//2
f 1//3 13//3 18//3
f 1//4 18//4 20//4
f 1//5 20//5 17//5
f 2//6 16//6 23//6
f 3//7 15//7 25//7
f 4//8 19//8 27//8
f 5//9 21//9 28//9
f 30//10 83//10 22//10
f 2//11 23//11 26//11
f 8//12 82//12 79//12
f 4//13 27//13 29//13
f 5//14 28//14 30//14
f 6//15 88//15 24//15
f 7//16 31//16 36//16
f 8//17 32//17 37//17
f 33//18 71//18 29//18
f 10//19 34//19 39//19
f 12//20 69//20 67//20
f 11//21 64//21 65//21
f 12//22 70//22 39//22
f 35//23 10//23 39//23
f 39//24 38//24 12//24
f 39//25 34//25 38//25
f 34//26 74//26 38//26
f 38//27 37//27 12//27
f 38//28 33//28 37//28
f 33//29 8//29 37//29
f 37//30 36//30 12//30
f 37//31 32//31 36//31
f 32//32 7//32 36//32
f 11//33 68//33 31//33
f 35//34 70//34 64//34
f 31//35 69//35 36//35
f 24//36 35//36 11//36
f 10//12 86//12 30//12
f 10//37 89//37 87//37
f 30//38 34//38 10//38
f 30//39 28//39 34//39
f 33//40 74//40 73//40
f 34//41 75//41 76//41
f 29//42 27//42 33//42
f 27//43 8//43 33//43
f 8//37 80//37 32//37
f 3//15 9//15 77//15
f 25//44 7//44 32//44
f 26//45 31//45 7//45
f 26//46 23//46 31//46
f 23//47 11//47 31//47
f 6//48 83//48 84//48
f 24//49 89//49 35//49
f 22//50 5//50 30//50
f 29//51 75//51 28//51
f 28//52 21//52 29//52
f 21//53 4//53 29//53
f 3//48 81//48 19//48
f 25//49 80//49 9//49
f 19//10 82//10 27//10
f 25//54 26//54 7//54
f 25//55 15//55 26//55
f 15//56 2//56 26//56
f 23//57 24//57 11//57
f 23//58 16//58 24//58
f 16//59 6//59 24//59
f 14//60 47//60 15//60
f 17//61 20//61 22//61
f 20//62 5//62 22//62
f 13//63 49//63 18//63
f 20//64 18//64 21//64
f 18//65 4//65 21//65
f 18//66 19//66 4//66
f 17//67 46//67 42//67
f 13//68 3//68 19//68
f 16//69 17//69 6//69
f 16//70 14//70 17//70
f 14//71 1//71 17//71
f 13//72 15//72 3//72
f 13//73 14//73 15//73
f 20//74 45//74 5//74
f 43//75 58//75 46//75
f 46//76 54//76 42//76
f 49//77 63//77 61//77
f 45//78 56//78 44//78
f 17//79 43//79 6//79
f 19//80 51//80 13//80
f 2//81 40//81 14//81
f 5//82 44//82 21//82
f 15//83 41//83 2//83
f 18//84 50//84 19//84
f 22//85 43//85 46//85
f 21//86 48//86 20//86
f 54//87 58//87 55//87
f 60//88 56//88 57//88
f 61//89 63//89 62//89
f 52//90 53//90 59//90
f 50//91 63//91 51//91
f 41//92 52//92 40//92
f 44//93 60//93 48//93
f 41//94 59//94 53//94
f 47//95 52//95 59//95
f 43//96 54//96 55//96
f 50//97 61//97 62//97
f 45//98 60//98 57//98
f 65//99 64//99 66//99
f 66//100 70//100 67//100
f 66//101 64//101 70//101
f 69//102 66//102 67//102
f 69//103 68//103 66//103
f 68//104 65//104 66//104
f 72//105 73//105 74//105
f 76//106 72//106 74//106
f 75//107 72//107 76//107
f 71//108 73//108 72//108
f 75//109 71//109 72//109
f 77//110 9//110 78//110
f 78//111 80//111 79//111
f 78//112 9//112 80//112
f 82//113 78//113 79//113
f 82//114 81//114 78//114
f 81//115 77//115 78//115
f 84//116 83//116 85//116
f 84//117 85//117 88//117
f 88//118 85//118 89//118
f 85//119 87//119 89//119
f 85//120 86//120 87//120
f 85//121 83//121 86//121
f 30//10 86//10 83//10
f 8//12 27//12 82//12
f 6//15 84//15 88//15
f 33//18 73//18 71//18
f 12//20 36//20 69//20
f 11//21 35//21 64//21
f 12//22 67//22 70//22
f 34//26 76//26 74//26
f 11//33 65//33 68//33
f 35//34 39//34 70//34
f 31//35 68//35 69//35
f 10//12 87//12 86//12
f 10//37 35//37 89//37
f 33//40 38//40 74//40
f 34//41 28//41 75//41
f 8//37 79//37 80//37
f 3//15 25//15 9//15
f 6//48 22//48 83//48
f 24//49 88//49 89//49
f 29//51 71//51 75//51
f 3//48 77//48 81//48
f 25//49 32//49 80//49
f 19//10 81//10 82//10
f 14//60 40//60 47//60
f 13//63 51//63 49//63
f 17//67 22//67 46//67
f 20//74 48//74 45//74
f 43//75 55//75 58//75
f 46//76 58//76 54//76
f 49//77 51//77 63//77
f 45//78 57//78 56//78
f 17//79 42//79 43//79
f 19//80 50//80 51//80
f 2//81 41//81 40//81
f 5//82 45//82 44//82
f 15//83 47//83 41//83
f 18//84 49//84 50//84
f 22//85 6//85 43//85
f 21//86 44//86 48//86
f 50//91 62//91 63//91
f 41//92 53//92 52//92
f 44//93 56//93 60//93
f 41//94 47//94 59//94
f 47//95 40//95 52//95
f 43//96 42//96 54//96
f 50//97 49//97 61//97
f 45//98 48//98 60//98
