# Blender v2.77 (sub 0) OBJ File: 'tower.blend'
# www.blender.org
o Cube
v 0.400000 -0.400000 -0.500000
v 0.400000 -0.400000 0.500000
v -0.400000 -0.400000 0.500000
v -0.400000 -0.400000 -0.500000
v 0.400000 0.400000 -0.500000
v 0.400000 0.400000 0.500000
v -0.400000 0.400000 0.500000
v -0.400000 0.400000 -0.500000
v 0.500000 0.400000 0.000000
v 0.000000 0.400000 -0.500000
v -0.000000 0.400000 0.500000
v -0.500000 0.400000 -0.000000
v 0.500000 0.400000 0.250000
v -0.250000 0.400000 -0.500000
v -0.250000 0.400000 0.500000
v -0.500000 0.400000 -0.250000
v 0.500000 0.400000 -0.250000
v 0.250000 0.400000 -0.500000
v 0.250000 0.400000 0.500000
v -0.500000 0.400000 0.250000
v -0.000000 0.500000 0.250000
v 0.000000 0.500000 -0.250000
v 0.250000 0.500000 0.000000
v -0.250000 0.500000 0.000000
v -0.250000 0.500000 -0.250000
v 0.250000 0.500000 -0.250000
v 0.250000 0.500000 0.250000
v -0.250000 0.500000 0.250000
v 0.500000 -0.400000 -0.400000
v -0.500000 -0.400000 -0.400000
v 0.500000 0.400000 -0.400000
v 0.500000 -0.400000 0.400000
v -0.500000 -0.400000 0.400000
v 0.500000 0.400000 0.400000
v -0.500000 0.400000 0.400000
v -0.500000 0.400000 -0.400000
v -0.250000 0.500000 -0.500000
v -0.250000 0.500000 0.500000
v 0.250000 0.500000 -0.500000
v 0.000000 0.500000 -0.500000
v 0.250000 0.500000 0.500000
v -0.000000 0.500000 0.500000
v 0.500000 -0.500000 -0.500000
v 0.500000 -0.500000 0.500000
v 0.500000 0.500000 -0.500000
v 0.500000 0.500000 0.500000
v -0.500000 -0.500000 0.500000
v -0.500000 -0.500000 -0.500000
v -0.500000 0.500000 0.500000
v -0.500000 0.500000 -0.500000
v 0.500000 0.500000 0.250000
v -0.500000 0.500000 -0.250000
v 0.500000 0.500000 -0.250000
v 0.500000 0.500000 0.000000
v -0.500000 0.500000 0.250000
v -0.500000 0.500000 -0.000000
v 0.400000 -0.400000 0.450000
v -0.400000 -0.400000 0.450000
v 0.400000 0.400000 0.450000
v -0.400000 0.400000 0.450000
v -0.250000 0.400000 0.450000
v 0.250000 0.400000 0.450000
v -0.000000 0.400000 0.450000
v 0.450000 -0.400000 -0.400000
v 0.450000 -0.400000 0.400000
v 0.450000 0.400000 -0.400000
v 0.450000 0.400000 0.400000
v 0.450000 0.400000 0.250000
v 0.450000 0.400000 -0.250000
v 0.450000 0.400000 0.000000
v 0.400000 -0.400000 -0.450000
v -0.400000 -0.400000 -0.450000
v 0.400000 0.400000 -0.450000
v -0.400000 0.400000 -0.450000
v -0.250000 0.400000 -0.450000
v 0.250000 0.400000 -0.450000
v 0.000000 0.400000 -0.450000
v -0.450000 -0.400000 0.400000
v -0.450000 -0.400000 -0.400000
v -0.450000 0.400000 0.400000
v -0.450000 0.400000 -0.400000
v -0.450000 0.400000 -0.250000
v -0.450000 0.400000 0.250000
v -0.450000 0.400000 -0.000000
v 0.500000 0.773001 0.250000
v 0.500000 0.773001 0.500000
v -0.250000 0.773001 -0.500000
v -0.500000 0.773001 -0.500000
v -0.250000 0.773001 0.500000
v -0.500000 0.773001 0.500000
v -0.500000 0.773001 -0.250000
v 0.500000 0.773001 -0.500000
v 0.500000 0.773001 -0.250000
v 0.250000 0.773001 -0.500000
v 0.250000 0.773001 0.500000
v -0.500000 0.773001 0.250000
v -0.250000 0.773001 -0.250000
v 0.250000 0.773001 -0.250000
v 0.250000 0.773001 0.250000
v -0.250000 0.773001 0.250000
v 0.000000 1.250000 -0.250000
v -0.000000 1.250000 0.000000
v -0.250000 1.250000 0.000000
v -0.000000 1.250000 0.250000
v 0.250000 1.250000 0.000000
v -0.250000 1.250000 -0.250000
v 0.250000 1.250000 -0.250000
v 0.250000 1.250000 0.250000
v -0.250000 1.250000 0.250000
v -0.000000 1.250000 -0.125000
v -0.125000 1.250000 0.000000
v -0.000000 1.250000 0.125000
v 0.125000 1.250000 0.000000
v -0.250000 1.250000 -0.125000
v -0.125000 1.250000 -0.250000
v 0.250000 1.250000 -0.125000
v 0.125000 1.250000 -0.250000
v 0.250000 1.250000 0.125000
v 0.125000 1.250000 0.250000
v -0.250000 1.250000 0.125000
v -0.125000 1.250000 0.250000
v -0.125000 1.250000 0.125000
v 0.125000 1.250000 0.125000
v -0.125000 1.250000 -0.125000
v 0.125000 1.250000 -0.125000
v 0.125000 1.400000 -0.250000
v 0.250000 1.400000 -0.250000
v 0.250000 1.400000 0.125000
v 0.250000 1.400000 0.250000
v 0.125000 1.400000 0.250000
v -0.250000 1.400000 0.125000
v -0.250000 1.400000 0.250000
v -0.250000 1.400000 -0.250000
v -0.250000 1.400000 -0.125000
v -0.125000 1.400000 -0.250000
v 0.250000 1.400000 -0.125000
v -0.125000 1.400000 0.250000
v -0.125000 1.400000 0.125000
v 0.125000 1.400000 0.125000
v -0.125000 1.400000 -0.125000
v 0.125000 1.400000 -0.125000
v 0.140417 1.572670 -0.280834
v 0.280834 1.572670 -0.280834
v 0.280834 1.572670 0.140417
v 0.280834 1.572670 0.280834
v 0.140417 1.572670 0.280834
v -0.280834 1.572670 0.140417
v -0.280834 1.572670 0.280834
v -0.280834 1.572670 -0.280834
v -0.280834 1.572670 -0.140417
v -0.140417 1.572670 -0.280834
v 0.280834 1.572670 -0.140417
v -0.140417 1.572670 0.280834
v -0.140417 1.572670 0.140417
v 0.140417 1.572670 0.140417
v -0.140417 1.572670 -0.140417
v 0.140417 1.572670 -0.140417
v 0.000000 1.653103 0.000000
v 0.289443 1.874215 0.210290
v -0.110555 1.874215 0.340260
v -0.357770 1.874216 0.000000
v -0.110555 1.874215 -0.340260
v 0.289443 1.874215 -0.210290
v 0.110555 2.231991 0.340260
v -0.289443 2.231991 0.210290
v -0.289443 2.231991 -0.210290
v 0.110555 2.231991 -0.340260
v 0.357770 2.231989 0.000000
v 0.000000 2.453103 0.000000
v -0.064982 1.712841 0.199998
v 0.170129 1.712841 0.123605
v 0.105148 1.842808 0.323605
v 0.340259 1.842808 0.000000
v 0.170129 1.712841 -0.123605
v -0.210292 1.712842 0.000000
v -0.275276 1.842808 0.199999
v -0.064982 1.712841 -0.199998
v -0.275276 1.842808 -0.199999
v 0.105148 1.842808 -0.323605
v 0.380423 2.053103 0.123605
v 0.380423 2.053103 -0.123605
v 0.000000 2.053103 0.400000
v 0.235114 2.053103 0.323607
v -0.380423 2.053103 0.123605
v -0.235114 2.053103 0.323607
v -0.235114 2.053103 -0.323607
v -0.380423 2.053103 -0.123605
v 0.235114 2.053103 -0.323607
v 0.000000 2.053103 -0.400000
v 0.275276 2.263397 0.199999
v -0.105148 2.263398 0.323605
v -0.340259 2.263397 0.000000
v -0.105148 2.263398 -0.323605
v 0.275276 2.263397 -0.199999
v 0.064982 2.393364 0.199998
v 0.210292 2.393363 0.000000
v -0.170129 2.393364 0.123605
v -0.170129 2.393364 -0.123605
v 0.064982 2.393364 -0.199998
vn 0.0000 -1.0000 0.0000
vn 1.0000 0.0000 0.0000
vn 0.0000 1.0000 0.0000
vn -0.0000 0.0000 1.0000
vn -1.0000 0.0000 -0.0000
vn 0.0000 0.0000 -1.0000
vn -0.0000 0.0889 0.9960
vn 0.0000 -0.1758 -0.9844
vn 0.0000 -0.1758 0.9844
vn -0.9960 0.0889 -0.0000
vn 0.9960 0.0889 0.0000
vn 0.9844 -0.1758 0.0000
vn 0.0000 0.0889 -0.9960
vn -0.9844 -0.1758 -0.0000
vn 0.1024 -0.9435 0.3151
vn 0.7002 -0.6617 0.2680
vn -0.2680 -0.9435 0.1947
vn -0.2680 -0.9435 -0.1947
vn 0.1024 -0.9435 -0.3151
vn 0.9050 -0.3304 0.2680
vn 0.0247 -0.3304 0.9435
vn -0.8897 -0.3304 0.3151
vn -0.5746 -0.3304 -0.7488
vn 0.5346 -0.3304 -0.7779
vn 0.8026 -0.1256 0.5831
vn -0.3066 -0.1256 0.9435
vn -0.9921 -0.1256 0.0000
vn -0.3066 -0.1256 -0.9435
vn 0.8026 -0.1256 -0.5831
vn 0.4089 0.6617 0.6284
vn -0.4713 0.6617 0.5831
vn -0.7002 0.6617 -0.2680
vn 0.0385 0.6617 -0.7488
vn 0.7240 0.6617 -0.1947
vn 0.2680 0.9435 -0.1947
vn 0.4911 0.7947 -0.3568
vn 0.4089 0.6617 -0.6284
vn -0.1024 0.9435 -0.3151
vn -0.1876 0.7947 -0.5773
vn -0.4713 0.6617 -0.5831
vn -0.3313 0.9435 0.0000
vn -0.6071 0.7947 0.0000
vn -0.7002 0.6617 0.2680
vn -0.1024 0.9435 0.3151
vn -0.1876 0.7947 0.5773
vn 0.0385 0.6617 0.7488
vn 0.2680 0.9435 0.1947
vn 0.4911 0.7947 0.3568
vn 0.7240 0.6617 0.1947
vn 0.8897 0.3304 -0.3151
vn 0.7947 0.1876 -0.5773
vn 0.5746 0.3304 -0.7488
vn -0.0247 0.3304 -0.9435
vn -0.3035 0.1876 -0.9342
vn -0.5346 0.3304 -0.7779
vn -0.9050 0.3304 -0.2680
vn -0.9822 0.1876 0.0000
vn -0.9050 0.3304 0.2680
vn -0.5346 0.3304 0.7779
vn -0.3035 0.1876 0.9342
vn -0.0247 0.3304 0.9435
vn 0.5746 0.3304 0.7488
vn 0.7947 0.1876 0.5773
vn 0.8897 0.3304 0.3151
vn 0.3066 0.1256 -0.9435
vn 0.3035 -0.1876 -0.9342
vn 0.0247 -0.3304 -0.9435
vn -0.8026 0.1256 -0.5831
vn -0.7947 -0.1876 -0.5773
vn -0.8897 -0.3304 -0.3151
vn -0.8026 0.1256 0.5831
vn -0.7947 -0.1876 0.5773
vn -0.5746 -0.3304 0.7488
vn 0.3066 0.1256 0.9435
vn 0.3035 -0.1876 0.9342
vn 0.5346 -0.3304 0.7779
vn 0.9921 0.1256 0.0000
vn 0.9822 -0.1876 0.0000
vn 0.9050 -0.3304 -0.2680
vn 0.4713 -0.6617 -0.5831
vn 0.1876 -0.7947 -0.5773
vn -0.0385 -0.6617 -0.7488
vn -0.4089 -0.6617 -0.6284
vn -0.4911 -0.7947 -0.3568
vn -0.7240 -0.6617 -0.1947
vn -0.7240 -0.6617 0.1947
vn -0.4911 -0.7947 0.3568
vn -0.4089 -0.6617 0.6284
vn 0.7002 -0.6617 -0.2680
vn 0.6071 -0.7947 0.0000
vn 0.3313 -0.9435 0.0000
vn -0.0385 -0.6617 0.7488
vn 0.1876 -0.7947 0.5773
vn 0.4713 -0.6617 0.5831
s off
f 44//1 48//1 43//1
f 51//2 86//2 46//2
f 17//1 66//1 31//1
f 3//2 60//2 7//2
f 12//1 83//1 20//1
f 4//3 71//3 1//3
f 27//3 42//3 41//3
f 26//2 116//2 23//2
f 25//3 56//3 24//3
f 21//4 121//4 28//4
f 37//3 22//3 40//3
f 26//5 94//5 39//5
f 26//3 54//3 53//3
f 28//2 89//2 38//2
f 40//3 26//3 39//3
f 25//4 91//4 52//4
f 23//3 51//3 54//3
f 22//6 117//6 26//6
f 28//3 42//3 21//3
f 23//2 118//2 27//2
f 56//3 28//3 24//3
f 1//6 48//6 4//6
f 5//6 43//6 1//6
f 2//4 47//4 44//4
f 2//4 46//4 6//4
f 3//4 49//4 47//4
f 4//6 50//6 8//6
f 8//6 37//6 14//6
f 7//4 38//4 49//4
f 10//6 39//6 18//6
f 19//4 42//4 11//4
f 14//6 40//6 10//6
f 11//4 38//4 15//4
f 5//6 39//6 45//6
f 6//4 41//4 19//4
f 32//2 43//2 29//2
f 29//2 45//2 31//2
f 34//2 44//2 32//2
f 33//5 48//5 47//5
f 33//5 49//5 35//5
f 30//5 50//5 48//5
f 34//2 51//2 46//2
f 36//5 52//5 50//5
f 17//2 54//2 9//2
f 20//5 56//5 12//5
f 9//2 51//2 13//2
f 12//5 52//5 16//5
f 31//2 53//2 17//2
f 35//5 55//5 20//5
f 63//4 61//4 58//4
f 19//1 59//1 6//1
f 2//3 58//3 3//3
f 15//1 63//1 11//1
f 11//1 62//1 19//1
f 7//1 61//1 15//1
f 6//5 57//5 2//5
f 70//2 68//2 65//2
f 31//4 64//4 29//4
f 13//1 70//1 9//1
f 9//1 69//1 17//1
f 34//1 68//1 13//1
f 32//6 67//6 34//6
f 29//3 65//3 32//3
f 71//6 77//6 76//6
f 8//2 72//2 4//2
f 5//1 76//1 18//1
f 1//5 73//5 5//5
f 14//1 77//1 75//1
f 10//1 76//1 77//1
f 14//1 74//1 8//1
f 84//5 82//5 79//5
f 36//1 82//1 16//1
f 30//4 81//4 36//4
f 33//3 79//3 30//3
f 35//6 78//6 33//6
f 20//1 80//1 35//1
f 16//1 84//1 12//1
f 96//3 89//3 100//3
f 87//3 91//3 97//3
f 94//3 93//3 92//3
f 99//3 86//3 85//3
f 53//4 98//4 26//4
f 50//6 87//6 37//6
f 45//2 93//2 53//2
f 55//6 100//6 28//6
f 38//4 90//4 49//4
f 39//6 92//6 45//6
f 41//5 99//5 27//5
f 37//2 97//2 25//2
f 52//5 88//5 50//5
f 46//4 95//4 41//4
f 49//5 96//5 55//5
f 27//6 85//6 51//6
f 110//3 113//3 125//3
f 124//3 103//3 111//3
f 112//3 119//3 123//3
f 107//2 136//2 116//2
f 28//5 120//5 24//5
f 25//6 115//6 22//6
f 27//4 119//4 21//4
f 24//5 114//5 25//5
f 122//3 104//3 112//3
f 111//3 112//3 102//3
f 103//3 122//3 111//3
f 117//6 127//6 107//6
f 105//3 123//3 118//3
f 102//3 123//3 113//3
f 124//3 102//3 110//3
f 115//3 110//3 101//3
f 106//6 135//6 115//6
f 125//3 105//3 116//3
f 122//2 137//2 121//2
f 101//3 125//3 117//3
f 136//7 157//7 141//7
f 127//8 142//8 143//8
f 132//9 153//9 148//9
f 126//10 157//10 142//10
f 115//2 140//2 124//2
f 118//2 129//2 108//2
f 120//6 138//6 122//6
f 108//4 130//4 119//4
f 124//4 134//4 114//4
f 119//5 139//5 123//5
f 109//5 131//5 120//5
f 125//5 126//5 117//5
f 123//6 128//6 118//6
f 121//4 132//4 109//4
f 116//4 141//4 125//4
f 114//5 133//5 106//5
f 147//3 153//3 154//3
f 155//3 145//3 144//3
f 149//3 156//3 151//3
f 142//3 152//3 143//3
f 137//11 154//11 153//11
f 129//12 144//12 145//12
f 131//13 154//13 138//13
f 129//9 146//9 130//9
f 130//10 155//10 139//10
f 132//14 147//14 131//14
f 128//13 155//13 144//13
f 133//14 150//14 149//14
f 135//11 156//11 140//11
f 133//8 151//8 135//8
f 134//7 156//7 150//7
f 127//12 152//12 136//12
f 158//15 171//15 170//15
f 159//16 171//16 173//16
f 158//17 170//17 175//17
f 158//18 175//18 177//18
f 158//19 177//19 174//19
f 159//20 173//20 180//20
f 160//21 172//21 182//21
f 161//22 176//22 184//22
f 162//23 178//23 186//23
f 163//24 179//24 188//24
f 159//25 180//25 183//25
f 160//26 182//26 185//26
f 161//27 184//27 187//27
f 162//28 186//28 189//28
f 163//29 188//29 181//29
f 164//30 190//30 195//30
f 165//31 191//31 197//31
f 166//32 192//32 198//32
f 167//33 193//33 199//33
f 168//34 194//34 196//34
f 196//35 199//35 169//35
f 196//36 194//36 199//36
f 194//37 167//37 199//37
f 199//38 198//38 169//38
f 199//39 193//39 198//39
f 193//40 166//40 198//40
f 198//41 197//41 169//41
f 198//42 192//42 197//42
f 192//43 165//43 197//43
f 197//44 195//44 169//44
f 197//45 191//45 195//45
f 191//46 164//46 195//46
f 195//47 196//47 169//47
f 195//48 190//48 196//48
f 190//49 168//49 196//49
f 181//50 194//50 168//50
f 181//51 188//51 194//51
f 188//52 167//52 194//52
f 189//53 193//53 167//53
f 189//54 186//54 193//54
f 186//55 166//55 193//55
f 187//56 192//56 166//56
f 187//57 184//57 192//57
f 184//58 165//58 192//58
f 185//59 191//59 165//59
f 185//60 182//60 191//60
f 182//61 164//61 191//61
f 183//62 190//62 164//62
f 183//63 180//63 190//63
f 180//64 168//64 190//64
f 188//65 189//65 167//65
f 188//66 179//66 189//66
f 179//67 162//67 189//67
f 186//68 187//68 166//68
f 186//69 178//69 187//69
f 178//70 161//70 187//70
f 184//71 185//71 165//71
f 184//72 176//72 185//72
f 176//73 160//73 185//73
f 182//74 183//74 164//74
f 182//75 172//75 183//75
f 172//76 159//76 183//76
f 180//77 181//77 168//77
f 180//78 173//78 181//78
f 173//79 163//79 181//79
f 174//80 179//80 163//80
f 174//81 177//81 179//81
f 177//82 162//82 179//82
f 177//83 178//83 162//83
f 177//84 175//84 178//84
f 175//85 161//85 178//85
f 175//86 176//86 161//86
f 175//87 170//87 176//87
f 170//88 160//88 176//88
f 173//89 174//89 163//89
f 173//90 171//90 174//90
f 171//91 158//91 174//91
f 170//92 172//92 160//92
f 170//93 171//93 172//93
f 171//94 159//94 172//94
f 44//1 47//1 48//1
f 51//2 85//2 86//2
f 17//1 69//1 66//1
f 3//2 58//2 60//2
f 12//1 84//1 83//1
f 4//3 72//3 71//3
f 27//3 21//3 42//3
f 105//2 23//2 116//2
f 26//2 107//2 116//2
f 25//3 52//3 56//3
f 109//4 28//4 121//4
f 21//4 104//4 121//4
f 37//3 25//3 22//3
f 26//5 98//5 94//5
f 26//3 23//3 54//3
f 28//2 100//2 89//2
f 40//3 22//3 26//3
f 25//4 97//4 91//4
f 23//3 27//3 51//3
f 107//6 26//6 117//6
f 22//6 101//6 117//6
f 28//3 38//3 42//3
f 108//2 27//2 118//2
f 23//2 105//2 118//2
f 56//3 55//3 28//3
f 1//6 43//6 48//6
f 5//6 45//6 43//6
f 2//4 3//4 47//4
f 2//4 44//4 46//4
f 3//4 7//4 49//4
f 4//6 48//6 50//6
f 8//6 50//6 37//6
f 7//4 15//4 38//4
f 10//6 40//6 39//6
f 19//4 41//4 42//4
f 14//6 37//6 40//6
f 11//4 42//4 38//4
f 5//6 18//6 39//6
f 6//4 46//4 41//4
f 32//2 44//2 43//2
f 29//2 43//2 45//2
f 34//2 46//2 44//2
f 33//5 30//5 48//5
f 33//5 47//5 49//5
f 30//5 36//5 50//5
f 34//2 13//2 51//2
f 36//5 16//5 52//5
f 17//2 53//2 54//2
f 20//5 55//5 56//5
f 9//2 54//2 51//2
f 12//5 56//5 52//5
f 31//2 45//2 53//2
f 35//5 49//5 55//5
f 58//4 57//4 63//4
f 62//4 63//4 57//4
f 57//4 59//4 62//4
f 61//4 60//4 58//4
f 19//1 62//1 59//1
f 2//3 57//3 58//3
f 15//1 61//1 63//1
f 11//1 63//1 62//1
f 7//1 60//1 61//1
f 6//5 59//5 57//5
f 65//2 64//2 70//2
f 66//2 69//2 64//2
f 68//2 67//2 65//2
f 69//2 70//2 64//2
f 31//4 66//4 64//4
f 13//1 68//1 70//1
f 9//1 70//1 69//1
f 34//1 67//1 68//1
f 32//6 65//6 67//6
f 29//3 64//3 65//3
f 76//6 73//6 71//6
f 71//6 72//6 77//6
f 75//6 77//6 72//6
f 72//6 74//6 75//6
f 8//2 74//2 72//2
f 5//1 73//1 76//1
f 1//5 71//5 73//5
f 14//1 10//1 77//1
f 10//1 18//1 76//1
f 14//1 75//1 74//1
f 79//5 78//5 84//5
f 78//5 80//5 83//5
f 82//5 81//5 79//5
f 78//5 83//5 84//5
f 36//1 81//1 82//1
f 30//4 79//4 81//4
f 33//3 78//3 79//3
f 35//6 80//6 78//6
f 20//1 83//1 80//1
f 16//1 82//1 84//1
f 96//3 90//3 89//3
f 87//3 88//3 91//3
f 94//3 98//3 93//3
f 99//3 95//3 86//3
f 53//4 93//4 98//4
f 50//6 88//6 87//6
f 45//2 92//2 93//2
f 55//6 96//6 100//6
f 38//4 89//4 90//4
f 39//6 94//6 92//6
f 41//5 95//5 99//5
f 37//2 87//2 97//2
f 52//5 91//5 88//5
f 46//4 86//4 95//4
f 49//5 90//5 96//5
f 27//6 99//6 85//6
f 110//3 102//3 113//3
f 124//3 114//3 103//3
f 112//3 104//3 119//3
f 107//2 127//2 136//2
f 103//5 24//5 120//5
f 28//5 109//5 120//5
f 101//6 22//6 115//6
f 25//6 106//6 115//6
f 104//4 21//4 119//4
f 27//4 108//4 119//4
f 106//5 25//5 114//5
f 24//5 103//5 114//5
f 122//3 121//3 104//3
f 111//3 122//3 112//3
f 103//3 120//3 122//3
f 117//6 126//6 127//6
f 105//3 113//3 123//3
f 102//3 112//3 123//3
f 124//3 111//3 102//3
f 115//3 124//3 110//3
f 106//6 133//6 135//6
f 125//3 113//3 105//3
f 122//2 138//2 137//2
f 101//3 110//3 125//3
f 136//7 152//7 157//7
f 127//8 126//8 142//8
f 132//9 137//9 153//9
f 126//10 141//10 157//10
f 115//2 135//2 140//2
f 118//2 128//2 129//2
f 120//6 131//6 138//6
f 108//4 129//4 130//4
f 124//4 140//4 134//4
f 119//5 130//5 139//5
f 109//5 132//5 131//5
f 125//5 141//5 126//5
f 123//6 139//6 128//6
f 121//4 137//4 132//4
f 116//4 136//4 141//4
f 114//5 134//5 133//5
f 147//3 148//3 153//3
f 155//3 146//3 145//3
f 149//3 150//3 156//3
f 142//3 157//3 152//3
f 137//11 138//11 154//11
f 129//12 128//12 144//12
f 131//13 147//13 154//13
f 129//9 145//9 146//9
f 130//10 146//10 155//10
f 132//14 148//14 147//14
f 128//13 139//13 155//13
f 133//14 134//14 150//14
f 135//11 151//11 156//11
f 133//8 149//8 151//8
f 134//7 140//7 156//7
f 127//12 143//12 152//12
