# Blender v2.77 (sub 0) OBJ File: 'wall_north.blend'
# www.blender.org
o Cube_Cube.001
v -0.250000 -0.400000 0.400000
v -0.250000 0.400000 0.400000
v -0.250000 0.400000 -0.400000
v -0.250000 -0.400000 -0.400000
v 0.250000 0.400000 -0.400000
v 0.250000 -0.400000 -0.400000
v 0.250000 0.400000 0.400000
v 0.250000 -0.400000 0.400000
v -0.250000 0.400000 0.300000
v -0.250000 0.400000 0.100000
v -0.250000 0.400000 -0.100000
v -0.250000 0.400000 -0.300000
v -0.250000 -0.400000 -0.300000
v -0.250000 -0.400000 -0.100000
v -0.250000 -0.400000 0.100000
v -0.250000 -0.400000 0.300000
v 0.250000 0.400000 -0.300000
v 0.250000 0.400000 -0.100000
v 0.250000 0.400000 0.100000
v 0.250000 0.400000 0.300000
v 0.250000 -0.400000 0.300000
v 0.250000 -0.400000 0.100000
v 0.250000 -0.400000 -0.100000
v 0.250000 -0.400000 -0.300000
v -0.250000 0.700000 -0.300000
v -0.250000 0.700000 -0.500000
v 0.250000 0.700000 -0.500000
v 0.250000 0.700000 0.300000
v 0.250000 0.700000 0.500000
v -0.250000 0.700000 0.500000
v -0.250000 0.700000 0.300000
v -0.250000 0.700000 0.100000
v -0.250000 0.700000 -0.100000
v 0.250000 0.700000 -0.300000
v 0.250000 0.700000 -0.100000
v 0.250000 0.700000 0.100000
v 0.250000 0.500000 -0.500000
v 0.250000 -0.500000 -0.500000
v 0.250000 0.500000 0.300000
v 0.250000 0.500000 0.500000
v 0.250000 -0.500000 0.500000
v 0.250000 -0.500000 -0.300000
v 0.250000 0.500000 -0.300000
v 0.250000 0.500000 -0.100000
v 0.250000 0.500000 0.100000
v 0.250000 -0.500000 0.300000
v 0.250000 -0.500000 0.100000
v 0.250000 -0.500000 -0.100000
v 0.200000 0.400000 -0.400000
v 0.200000 -0.400000 -0.400000
v 0.200000 0.400000 0.300000
v 0.200000 0.400000 0.400000
v 0.200000 -0.400000 0.400000
v 0.200000 -0.400000 -0.300000
v 0.200000 0.400000 -0.300000
v 0.200000 0.400000 -0.100000
v 0.200000 0.400000 0.100000
v 0.200000 -0.400000 0.300000
v 0.200000 -0.400000 0.100000
v 0.200000 -0.400000 -0.100000
v -0.250000 -0.500000 0.500000
v -0.250000 0.500000 0.500000
v -0.250000 0.500000 -0.300000
v -0.250000 0.500000 -0.500000
v -0.250000 -0.500000 -0.500000
v -0.250000 -0.500000 0.300000
v -0.250000 0.500000 0.300000
v -0.250000 0.500000 0.100000
v -0.250000 0.500000 -0.100000
v -0.250000 -0.500000 -0.300000
v -0.250000 -0.500000 -0.100000
v -0.250000 -0.500000 0.100000
v -0.200000 -0.400000 0.400000
v -0.200000 0.400000 0.400000
v -0.200000 0.400000 -0.300000
v -0.200000 0.400000 -0.400000
v -0.200000 -0.400000 -0.400000
v -0.200000 -0.400000 0.300000
v -0.200000 0.400000 0.300000
v -0.200000 0.400000 0.100000
v -0.200000 0.400000 -0.100000
v -0.200000 -0.400000 -0.300000
v -0.200000 -0.400000 -0.100000
v -0.200000 -0.400000 0.100000
vn 0.0000 0.0000 -1.0000
vn 0.0000 0.0000 1.0000
vn 0.0000 -1.0000 0.0000
vn 0.0000 1.0000 0.0000
vn -1.0000 0.0000 0.0000
vn 1.0000 0.0000 0.0000
s off
f 37//1 65//1 64//1
f 62//2 41//2 40//2
f 65//3 42//3 70//3
f 69//1 35//1 44//1
f 21//4 53//4 8//4
f 4//2 76//2 3//2
f 63//5 26//5 64//5
f 45//4 67//4 39//4
f 37//6 34//6 43//6
f 43//4 69//4 44//4
f 66//3 41//3 61//3
f 72//3 46//3 66//3
f 71//3 47//3 72//3
f 70//3 48//3 71//3
f 27//4 25//4 34//4
f 28//4 30//4 29//4
f 35//4 32//4 36//4
f 68//5 33//5 69//5
f 43//2 25//2 63//2
f 67//1 28//1 39//1
f 44//6 36//6 45//6
f 40//2 30//2 62//2
f 62//5 31//5 67//5
f 39//6 29//6 40//6
f 45//2 32//2 68//2
f 64//1 27//1 37//1
f 5//6 38//6 37//6
f 7//6 39//6 40//6
f 8//6 40//6 41//6
f 6//6 42//6 38//6
f 5//6 43//6 17//6
f 17//6 44//6 18//6
f 18//6 45//6 19//6
f 19//6 39//6 20//6
f 8//6 46//6 21//6
f 21//6 47//6 22//6
f 22//6 48//6 23//6
f 23//6 42//6 24//6
f 51//6 52//6 58//6
f 18//3 55//3 17//3
f 8//1 52//1 7//1
f 22//4 58//4 21//4
f 19//3 56//3 18//3
f 6//4 54//4 24//4
f 23//4 59//4 22//4
f 5//2 50//2 6//2
f 20//3 57//3 19//3
f 17//3 49//3 5//3
f 24//4 60//4 23//4
f 7//3 51//3 20//3
f 2//5 61//5 62//5
f 3//5 63//5 64//5
f 4//5 64//5 65//5
f 1//5 66//5 61//5
f 2//5 67//5 9//5
f 9//5 68//5 10//5
f 10//5 69//5 11//5
f 11//5 63//5 12//5
f 4//5 70//5 13//5
f 13//5 71//5 14//5
f 14//5 72//5 15//5
f 15//5 66//5 16//5
f 75//5 76//5 82//5
f 14//4 82//4 13//4
f 11//3 80//3 10//3
f 1//4 78//4 16//4
f 15//4 83//4 14//4
f 2//1 73//1 1//1
f 12//3 81//3 11//3
f 9//3 74//3 2//3
f 16//4 84//4 15//4
f 3//3 75//3 12//3
f 13//4 77//4 4//4
f 10//3 79//3 9//3
f 37//1 38//1 65//1
f 62//2 61//2 41//2
f 65//3 38//3 42//3
f 69//1 33//1 35//1
f 21//4 58//4 53//4
f 4//2 77//2 76//2
f 63//5 25//5 26//5
f 45//4 68//4 67//4
f 37//6 27//6 34//6
f 43//4 63//4 69//4
f 66//3 46//3 41//3
f 72//3 47//3 46//3
f 71//3 48//3 47//3
f 70//3 42//3 48//3
f 27//4 26//4 25//4
f 28//4 31//4 30//4
f 35//4 33//4 32//4
f 68//5 32//5 33//5
f 43//2 34//2 25//2
f 67//1 31//1 28//1
f 44//6 35//6 36//6
f 40//2 29//2 30//2
f 62//5 30//5 31//5
f 39//6 28//6 29//6
f 45//2 36//2 32//2
f 64//1 26//1 27//1
f 5//6 6//6 38//6
f 7//6 20//6 39//6
f 8//6 7//6 40//6
f 6//6 24//6 42//6
f 5//6 37//6 43//6
f 17//6 43//6 44//6
f 18//6 44//6 45//6
f 19//6 45//6 39//6
f 8//6 41//6 46//6
f 21//6 46//6 47//6
f 22//6 47//6 48//6
f 23//6 48//6 42//6
f 54//6 50//6 49//6
f 55//6 56//6 60//6
f 54//6 49//6 55//6
f 58//6 59//6 57//6
f 60//6 54//6 55//6
f 57//6 51//6 58//6
f 60//6 56//6 57//6
f 52//6 53//6 58//6
f 59//6 60//6 57//6
f 18//3 56//3 55//3
f 8//1 53//1 52//1
f 22//4 59//4 58//4
f 19//3 57//3 56//3
f 6//4 50//4 54//4
f 23//4 60//4 59//4
f 5//2 49//2 50//2
f 20//3 51//3 57//3
f 17//3 55//3 49//3
f 24//4 54//4 60//4
f 7//3 52//3 51//3
f 2//5 1//5 61//5
f 3//5 12//5 63//5
f 4//5 3//5 64//5
f 1//5 16//5 66//5
f 2//5 62//5 67//5
f 9//5 67//5 68//5
f 10//5 68//5 69//5
f 11//5 69//5 63//5
f 4//5 65//5 70//5
f 13//5 70//5 71//5
f 14//5 71//5 72//5
f 15//5 72//5 66//5
f 78//5 73//5 74//5
f 79//5 80//5 84//5
f 78//5 74//5 79//5
f 82//5 83//5 81//5
f 84//5 78//5 79//5
f 81//5 75//5 82//5
f 84//5 80//5 81//5
f 76//5 77//5 82//5
f 83//5 84//5 81//5
f 14//4 83//4 82//4
f 11//3 81//3 80//3
f 1//4 73//4 78//4
f 15//4 84//4 83//4
f 2//1 74//1 73//1
f 12//3 75//3 81//3
f 9//3 79//3 74//3
f 16//4 78//4 84//4
f 3//3 76//3 75//3
f 13//4 82//4 77//4
f 10//3 80//3 79//3
